<svg id="Layer_1" enable-background="new 0 0 512.172 512.172" height="512" viewBox="0 0 512.172 512.172" width="512" xmlns="http://www.w3.org/2000/svg"><g><g><g><ellipse cx="363.487" cy="42.765" fill="#80391b" rx="42.092" ry="42.092" transform="matrix(.383 -.924 .924 .383 184.877 362.217)"/><g><g id="XMLID_399_"><path d="m392.048 490.494-22.479-199.59 21.679-22.299 26.94 22.299 22.464 194.022c1.538 13.422-8.096 25.548-21.517 27.086-13.387 1.534-25.546-8.063-27.087-21.518z" fill="#1b1d1e"/></g><g id="XMLID_398_"><path d="m309.664 512.011c-13.421-1.538-23.055-13.664-21.517-27.086l22.465-194.022 26.939-22.299 21.679 22.299-22.479 199.59c-1.541 13.441-13.685 23.054-27.087 21.518z" fill="#292c2d"/></g></g><path d="m335.498 97.053h-13.425c-.242 0-.527.021-.849.06h-.312c-26.016 0-49.39 16.455-58.164 40.945l-21.369 59.639c-.868 2.421-1.255 4.987-1.141 7.556l2.599 58.682 16.08 3.836 23.494-5.4-2.434-54.98 20.055-55.973c.547-1.526 1.261-2.959 2.102-4.296l8.479 143.783h53.964l4.305-3.588v-176.873z" fill="#00558c"/><path d="m429.016 151.417 19.865 55.445-5.261 53.587 16.492 11.81 23.088-7.767 5.532-58.169c.289-2.919-.075-5.866-1.064-8.627l-21.368-59.638c-8.693-24.258-31.711-40.621-57.427-40.93-.303-.048-.567-.075-.786-.075h-14.787l-28.726 7.811v186.039h53.612l8.533-144.107c.932 1.426 1.707 2.973 2.297 4.621z" fill="#004470"/><path d="m242.836 263.935.509 11.51 21.316 6.714 18.25-8.466-.501-11.323z" fill="#fff"/><path d="m243.345 275.445c.471 10.628 9.234 18.927 19.768 18.927.295 0 .593-.007.89-.02 10.926-.484 19.392-9.733 18.907-20.659z" fill="#80391b"/><path d="m460.751 268.604-18.499 5.358c-1.076 10.884 6.875 20.578 17.759 21.654.662.065 1.319.097 1.97.097 10.059 0 18.673-7.636 19.683-17.857z" fill="#80391b"/><path d="m443.621 260.449-1.369 13.513 39.412 3.895 1.537-13.364z" fill="#fff"/><path d="m335.497 97.053s6.46 38.594 20.788 49.939h16.227c14.328-11.345 20.788-49.939 20.788-49.939h-21.026l-7.875 3.383-7.875-3.383z" fill="#fff"/><g fill="#1b1d1e"><path d="m372.274 97.053h-15.751c-1.98 0-3.475 1.796-3.115 3.743l2.594 14.048c.277 1.502 1.587 2.593 3.115 2.593h10.564c1.528 0 2.838-1.09 3.115-2.593l2.594-14.048c.359-1.947-1.136-3.743-3.116-3.743z"/><path d="m371.853 123.941c-.24-1.218-1.307-2.096-2.548-2.096h-9.811c-1.241 0-2.309.878-2.548 2.096l-2.558 13.005c-.067.342-.065.695.007 1.036l1.896 9.004c2.468 1.954 5.168 3.105 8.11 3.105s5.642-1.152 8.11-3.105l1.896-9.004c.072-.342.074-.694.007-1.036z"/></g></g></g><g><g id="XMLID_3260_"><path d="m208.207 211.389-6.209-76.922c-.128-1.584-.446-3.146-.947-4.653-6.62-19.916-24.445-33.434-45.432-33.434l-2.444.137c.001.063.01.125.01.187v39.418h1.71c3.312 0 6.298 1.795 7.875 4.603l1.947 40.976-39.987-16.574c-1.284.516-2.666.896-4.157 1.096-7.883 1.059-14.698-3.257-17.858-10.196-9.998-3.878-21.314.905-25.443 10.866-4.188 10.103.607 21.688 10.711 25.875l92.905 38.506c2.441 1.012 5.017 1.509 7.58 1.509 4.126 0 8.216-1.288 11.655-3.792 5.576-4.058 8.638-10.727 8.084-17.602z" fill="#004470"/></g><g id="XMLID_3256_"><path d="m160.188 166.651c-4.347-10.036-16.009-14.648-26.041-10.301l-6.305 2.731c-2.619 5.53-6.916 9.473-13.335 10.335-2.801.376-5.689.029-8.339-.948l-39.518 17.116-3.651-37.585c-.296-3.042.681-6.108 2.679-8.414 1.116-1.287 2.954-2.808 5.633-3.297v-39.728c-.169.006-1.538-.188-1.707-.18-13.602.624-24.854 6.88-33.856 17.267-9.074 10.471-13.509 24.388-12.169 38.182l6.281 64.648c.612 6.301 4.201 11.93 9.655 15.145 3.09 1.821 6.566 2.743 10.057 2.743 2.671 0 5.351-.541 7.869-1.631l92.447-40.04c10.034-4.348 14.646-16.007 10.3-26.043z" fill="#00558c"/></g><g><ellipse cx="111.018" cy="42.092" fill="#ffb69e" rx="42.092" ry="42.092" transform="matrix(.383 -.924 .924 .383 29.645 128.552)"/><g><g id="XMLID_790_"><path d="m139.579 489.821-22.479-199.59c-1.538-13.422 8.257-20.762 21.679-22.299 13.415-1.538 25.548 8.096 27.086 21.517l22.318 194.804c1.538 13.422-8.096 25.548-21.517 27.086-13.386 1.535-25.545-8.063-27.087-21.518z" fill="#1b1d1e"/></g><g id="XMLID_404_"><path d="m57.195 511.338c-13.421-1.538-23.055-13.664-21.517-27.086l22.318-194.804c1.538-13.422 13.664-23.051 27.086-21.517 13.421 1.538 23.216 8.878 21.679 22.299l-22.479 199.59c-1.54 13.441-13.684 23.054-27.087 21.518z" fill="#292c2d"/></g></g><g><path d="m83.029 96.38h-13.425s-7.728 6.202-11.461 6.921v186.93h53.964l4.305-3.588v-176.872z" fill="#00558c"/></g><g><path d="m165.719 102.663c-3.303-.558-10.1-6.282-10.1-6.282h-14.787l-28.726 7.811v186.039h53.612v-187.568z" fill="#004470"/></g><path d="m83.029 96.38s6.46 38.594 20.788 49.939h16.227c14.327-11.345 20.788-49.939 20.788-49.939h-21.026l-7.875 3.383-7.875-3.383z" fill="#fff"/><g fill="#1b1d1e"><path d="m119.806 96.38h-15.751c-1.98 0-3.475 1.796-3.115 3.743l2.593 14.048c.277 1.502 1.587 2.593 3.115 2.593h10.564c1.528 0 2.838-1.09 3.115-2.593l2.593-14.048c.36-1.947-1.134-3.743-3.114-3.743z"/><path d="m119.384 123.269c-.24-1.218-1.307-2.096-2.548-2.096h-9.811c-1.241 0-2.309.878-2.548 2.096l-2.558 13.005c-.067.342-.065.695.007 1.036l1.896 9.004c2.468 1.954 5.168 3.105 8.11 3.105s5.642-1.152 8.11-3.105l1.896-9.004c.072-.341.074-.694.007-1.036z"/></g></g><g id="XMLID_3283_"><path d="m196.05 194.689-82.006-33.989-10.899 7.291-5.235 28.895 82.975 34.391c2.479 1.027 5.047 1.514 7.574 1.514 7.769 0 15.141-4.602 18.301-12.225 4.189-10.105-.606-21.69-10.71-25.877z" fill="#004470"/></g><g id="XMLID_794_"><path d="m103.145 156.183c-6.035-2.501-13.695 8.468-13.695 8.468s-2.396 27.735-1.469 28.119l11.283 4.676 14.78-36.746z" fill="#fff"/></g><g id="XMLID_795_"><path d="m103.145 156.183c-10.102-4.187-21.687.608-25.875 10.712-4.188 10.103.607 21.688 10.711 25.875z" fill="#ffb69e"/></g><g id="XMLID_3281_"><path d="m138.193 173.703-14.96-12.626-81.533 35.314c-10.036 4.347-14.648 16.006-10.301 26.042 3.236 7.472 10.525 11.937 18.181 11.937 2.626 0 5.297-.526 7.86-1.636l81.473-35.287z" fill="#00558c"/></g><g id="XMLID_792_"><path d="m147.985 171.182-13.839-14.831-10.913 4.726 15.679 36.369 10.974-4.753z" fill="#fff"/></g><g id="XMLID_793_"><path d="m160.188 166.651c-4.347-10.035-16.006-14.65-26.041-10.301l15.74 36.342c10.035-4.346 14.647-16.005 10.301-26.041z" fill="#ffb69e"/></g></g></g></svg>