<svg height="512pt" viewBox="-3 0 512 512" width="512pt" xmlns="http://www.w3.org/2000/svg"><g fill="#ffb69e"><path d="m323.570312 512c-12.117187 0-21.9375-9.820312-21.9375-21.933594l-.015624-227.371094c0-12.113281 9.820312-21.9375 21.933593-21.9375s21.9375 9.820313 21.9375 21.933594l.015625 227.371094c0 12.117188-9.820312 21.9375-21.933594 21.9375zm0 0"/><path d="m270.222656 512c-12.089844 0-21.902344-9.785156-21.9375-21.878906l-.523437-202.992188c-.03125-12.117187 9.765625-21.964844 21.878906-21.996094h.058594c12.089843 0 21.902343 9.785157 21.9375 21.878907l.523437 202.996093c.03125 12.113282-9.765625 21.960938-21.878906 21.992188-.019531 0-.039062 0-.058594 0zm0 0"/><path d="m147.917969 87.398438c0 21.085937-17.09375 38.175781-38.175781 38.175781-21.085938 0-38.179688-17.089844-38.179688-38.175781 0-21.085938 17.09375-38.175782 38.179688-38.175782 21.082031 0 38.175781 17.089844 38.175781 38.175782zm0 0"/></g><path d="m137.445312 512c-12.253906 0-22.1875-9.933594-22.1875-22.1875v-176.683594c0-12.253906 9.933594-22.1875 22.1875-22.1875 12.25 0 22.1875 9.933594 22.1875 22.1875v176.6875c-.003906 12.25-9.9375 22.183594-22.1875 22.183594zm0 0" fill="#343e6b"/><path d="m84.246094 512c-12.253906 0-22.1875-9.933594-22.1875-22.1875v-176.683594c0-12.253906 9.933594-22.1875 22.1875-22.1875 12.25 0 22.183594 9.933594 22.183594 22.1875v176.6875c0 12.25-9.933594 22.183594-22.183594 22.183594zm0 0" fill="#414b82"/><path d="m221.636719 243.730469-20.054688-67.554688c-6.910156-23.28125-28.695312-39.539062-52.976562-39.539062-15.621094 0-57.300781 0-74.835938 0-24.285156 0-46.070312 16.257812-52.976562 39.539062l-20.054688 67.554688c-2.75 9.257812 2.425781 19.011719 11.632813 21.925781l49.6875 15.726562v31.078126h97.574218v-30.863282l50.367188-15.941406c9.207031-2.914062 14.382812-12.667969 11.636719-21.925781zm-181.992188-6.597657 15.105469-50.878906c1.257812-4.234375 3.886719-7.816406 7.308594-10.324218v68.296874zm119.984375 7.308594v-68.980468c3.753906 2.519531 6.652344 6.285156 7.992188 10.792968l15.105468 50.878906zm0 0" fill="#252d5c"/><path d="m164.304688 42.882812c0-9.628906-6.242188-20.179687-16.703126-28.226562-10.746093-8.265625-24.195312-12.816406-37.863281-12.816406-13.660156 0-27.105469 4.550781-37.851562 12.816406-10.464844 8.046875-16.710938 18.597656-16.710938 28.226562 0 11.121094 7.179688 17.042969 17.046875 20.195313v7.183594c.011719 8.527343 16.789063 19.640625 37.515625 19.640625 20.730469 0 37.523438-11.113282 37.535157-19.640625v-7.191407c9.859374-3.152343 17.03125-9.074218 17.03125-20.1875zm0 0" fill="#252d5c"/><path d="m122.289062 48.851562c0-10.148437-5.617187-18.375-12.550781-18.375-6.929687 0-12.546875 8.226563-12.546875 18.375 0 10.148438 5.617188 18.375 12.546875 18.375 6.933594 0 12.550781-8.226562 12.550781-18.375zm0 0" fill="#a5c8cd"/><path d="m110.566406 184.742188c-18.160156 0-26.210937-48.105469-26.210937-48.105469h52.425781s-8.050781 48.105469-26.214844 48.105469zm0 0" fill="#fff"/><path d="m115.359375 155.125h-9.582031c-1.386719 0-2.574219-.988281-2.824219-2.351562l-2.351563-12.742188c-.328124-1.765625 1.03125-3.394531 2.824219-3.394531h14.285157c1.796874 0 3.152343 1.628906 2.824218 3.394531l-2.351562 12.742188c-.25 1.363281-1.4375 2.351562-2.824219 2.351562zm0 0" fill="#343e6b"/><path d="m117.328125 160.011719c-.214844-1.101563-1.183594-1.898438-2.308594-1.898438h-8.902343c-1.125 0-2.09375.792969-2.308594 1.898438l-2.320313 11.796875c-.0625.3125-.058593.628906.003907.941406l1.976562 9.382812c2.171875 1.648438 4.535156 2.613282 7.101562 2.613282 2.566407 0 4.929688-.964844 7.097657-2.613282l1.976562-9.382812c.0625-.3125.066407-.628906.003907-.941406zm0 0" fill="#343e6b"/><path d="m371.808594 372.234375c.273437 1.742187-.230469 3.515625-1.375 4.855469-1.148438 1.339844-2.820313 2.109375-4.582032 2.109375h-137.097656c-1.757812 0-3.429687-.765625-4.574218-2.101563-1.148438-1.332031-1.652344-3.101562-1.386719-4.839844l31.863281-208.773437c1.527344-9.984375 10.113281-17.363281 20.214844-17.363281h44.042968c10.074219 0 18.644532 7.335937 20.203126 17.285156zm0 0" fill="#fa503c"/><path d="m350.6875 92.148438c0 22.324218-18.097656 40.421874-40.421875 40.421874-22.320313 0-40.417969-18.097656-40.417969-40.421874 0-22.324219 18.097656-40.417969 40.417969-40.417969 22.324219 0 40.421875 18.09375 40.421875 40.417969zm0 0" fill="#ffb69e"/><path d="m419.300781 266.933594h23v15.332031h-23zm0 0" fill="#3c5a73"/><path d="m449.300781 327.5h-8.75c-4.558593 0-8.25-3.695312-8.25-8.25v-87.5c0-4.554688 3.691407-8.25 8.25-8.25h8.75zm0 0" fill="#6c9baa"/><path d="m419.300781 291.066406c-4.972656 0-9-4.027344-9-9v-14.9375c0-4.96875 4.027344-9 9-9 4.96875 0 9 4.03125 9 9v14.9375c0 4.972656-4.03125 9-9 9zm0 0" fill="#6c9baa"/><path d="m411.71875 276.929688-73.25-19.816407c-3.820312-1.035156-7.210938-3.261719-9.667969-6.363281l-53.707031-67.710938c-6.355469-8.007812-5.011719-19.648437 2.996094-26.003906 8.007812-6.347656 19.648437-5.011718 26.003906 3l49.921875 62.9375 67.367187 18.222656c9.867188 2.667969 15.703126 12.832032 13.03125 22.699219-2.660156 9.835938-12.800781 15.710938-22.695312 13.035157zm0 0" fill="#ffb69e"/><path d="m328.640625 190.980469-24.546875-30.945313c-6.355469-8.011718-17.996094-9.347656-26.003906-3-8.007813 6.355469-9.351563 17.996094-2.996094 26.003906l23.636719 29.800782zm0 0" fill="#e83e29"/><path d="m444.300781 0h61v512h-61zm0 0" fill="#6c9baa"/></svg>