<svg id="flat" height="512" viewBox="0 0 512 512" width="512" xmlns="http://www.w3.org/2000/svg"><path d="m88 380.55436 67.7073 33.85364a58.21914 58.21914 0 0 0 26.03636 6.14635 58.21908 58.21908 0 0 0 50.89267-29.94535l32.52133-58.5384-89.15766-84.73587v101.21963l-104-24z" fill="#556c80"/><path d="m352 440v-80.804a56 56 0 0 0 -16.402-39.598l-55.598-55.598 80-80h-144l-23.49986 23.49986a56.335 56.335 0 0 0 -16.50014 39.83487 56.335 56.335 0 0 0 18.12409 41.39516l85.87591 79.27011 16 88z" fill="#62798c"/><path d="m384 136-12.3479-20.57983a40 40 0 0 0 -34.29972-19.42017h-129.35238v128h176z" fill="#718799"/><path d="m240 248v-112h216v152h-176z" fill="#d69651"/><path d="m384 136v56l-16-16-16 16-16-16-16 16v-56z" fill="#c78640"/><path d="m304 56v32a24 24 0 0 1 -48 0v-32z" fill="#ffceb6"/><g fill="#8098ab"><path d="m304 88a24 24 0 0 1 -48 0l24-8z"/><path d="m256 48h80v16h-80z"/><path d="m280 24a24 24 0 0 1 24 24v8a0 0 0 0 1 0 0h-48a0 0 0 0 1 0 0v-8a24 24 0 0 1 24-24z"/></g><path d="m222.82007 257.18-59.24-55a61.27732 61.27732 0 0 1 41.69993-106.18h34.72v85.54l30.3999 28.06z" fill="#718799"/><path d="m304 264-16-8 8 32h-40l-33.18-30.82 47.58-47.58 41.6 38.4z" fill="#ffceb6"/><path d="m416 288v-32l24-8-16-16v-8h32a16 16 0 0 1 16 16v32a16 16 0 0 1 -16 16z" fill="#ffceb6"/><path d="m72 324.554h-32v104h24l24-48z" fill="#d1e4ff"/><path d="m296 488v-32l56-16 48 32v16z" fill="#d1e4ff"/><path d="m240 170.65173-20.6958-19.10388a7.99967 7.99967 0 1 0 -10.85205 11.75635l20.24365 18.68652a7.99964 7.99964 0 0 0 11.3042-.45215z" fill="#62798c"/></svg>